<?xml version="1.0" standalone="no"?>
<!DOCTYPE svg PUBLIC "-//W3C//DTD SVG 20010904//EN"
 "http://www.w3.org/TR/2001/REC-SVG-20010904/DTD/svg10.dtd">
<svg version="1.0" xmlns="http://www.w3.org/2000/svg"
 width="128.000000pt" height="128.000000pt" viewBox="0 0 128.000000 128.000000"
 preserveAspectRatio="xMidYMid meet">
<metadata>
Created by potrace 1.11, written by Peter Selinger 2001-2013
</metadata>
<g transform="translate(0.000000,128.000000) scale(0.100000,-0.100000)"
fill="#000000" stroke="none">
<path d="M785 1270 c-4 -6 -118 -10 -309 -10 -281 0 -304 -1 -319 -18 -15 -17
-17 -74 -17 -614 0 -564 1 -596 18 -611 17 -15 65 -17 480 -17 449 0 463 1
482 20 20 20 20 33 20 610 0 577 0 590 -20 610 -13 13 -33 20 -59 20 -22 0
-43 5 -46 10 -4 6 -53 10 -115 10 -62 0 -111 -4 -115 -10z"/>
</g>
</svg>
